<?xml version="1.0" encoding="utf-8"?>
<!-- Generator: Adobe Illustrator 25.4.1, SVG Export Plug-In . SVG Version: 6.00 Build 0)  -->
<svg version="1.1" id="Layer_1" xmlns="http://www.w3.org/2000/svg" xmlns:xlink="http://www.w3.org/1999/xlink" x="0px" y="0px"
	 viewBox="0 0 1920 1080" style="enable-background:new 0 0 1920 1080;" xml:space="preserve">
<style type="text/css">
	.st0{fill:#213B83;}
	.st1{fill:#A9BB32;}
	.st2{fill:#E22721;}
</style>
<g>
	<path class="st0" d="M58.56,719.58c4.33-6.99,8.11-13.29,12.09-19.45c7.34-11.36,14.36-22.96,21.65-34.35
		c5.72-8.93,11.08-18.11,16.96-26.89c7.13-10.64,13.47-21.83,20.53-32.48c7.08-10.67,13.45-21.84,20.54-32.47
		c6.7-10.05,12.85-20.47,19.38-30.63c2.71-4.22,5.72-8.26,8.11-12.68c1.41-2.61,3.42-4.7,4.67-7.46c1.28-2.82,3.51-5.13,5.18-7.75
		c1.57-2.46,2.91-5.09,4.45-7.58c3.87-6.26,7.79-12.48,11.7-18.72c1.02-1.63,1.98-3.31,3.15-4.81c2.24-2.87,4.48-5.75,6.95-8.39
		c6.06-6.5,13.5-10.75,21.57-13.38c3.56-1.16,7.36-2.08,11.23-2.23c1.95-0.07,3.81-1.12,5.88-0.94c1.98,0.18,4.01,0.34,5.9-0.85
		c0.55-0.35,1.46-0.05,2.2-0.05c43.29,0,86.59,0,129.88,0c0.43,0,0.87,0,1.72,0c-1.16,2.08-1.92,4.15-3.23,5.68
		c-3.67,4.28-6.19,9.41-9.26,14.11c-5.07,7.76-9.67,15.85-14.91,23.5c-5.21,7.61-9.74,15.74-14.65,23.59
		c-3.6,5.75-7.4,11.36-10.97,17.13c-6.81,10.99-13.33,22.18-20.34,33.02c-4.08,6.32-8.26,12.56-12.19,18.99
		c-6.29,10.29-12.63,20.54-19,30.77c-5.61,9-11.3,17.93-16.96,26.9c-5.58,8.84-11.35,17.55-16.64,26.58
		c-2.51,4.29-4.69,8.85-7.55,12.85c-2.55,3.57-5.71,6.65-8.75,9.79c-1.19,1.22-2.86,1.89-4.17,3c-4.64,3.98-10.36,5.54-15.65,8.03
		c-2.38,1.12-5.03,1.59-7.55,2.4c-3.88,1.26-7.92,1.78-11.86,2.75c-3.48,0.86-7.21,0.49-10.76,1.12
		c-10.27,1.8-20.59,0.65-30.88,0.86c-10.56,0.22-21.13,0.05-31.69,0.05c-10.41,0-20.83,0-31.24,0s-20.83,0-31.24,0
		C61.66,719.58,60.5,719.58,58.56,719.58z"/>
	<path class="st1" d="M619.51,460.37c-3.98,6.28-7.46,11.74-10.92,17.2c-4.96,7.84-10.03,15.59-14.98,23.44
		c-3.77,5.98-7.48,12.05-11.44,17.89c-5.37,7.91-10.07,16.31-15.35,24.25c-4.65,7-8.98,14.21-13.5,21.29
		c-4.89,7.66-9.7,15.37-13.97,23.46c-0.21,0.4-0.54,0.73-0.83,1.07c-5.77,6.7-12.12,12.46-20.16,15.98
		c-4.1,1.8-8.23,3.37-12.49,4.65c-4.33,1.3-8.7,2.25-13.15,3.02c-2.42,0.42-4.92,0.29-7.21,0.93c-2.58,0.72-5.11,0.81-7.7,0.83
		c-2.53,0.02-5.13-0.41-7.58,0.08c-8.93,1.8-17.92,0.6-26.87,0.83c-9.07,0.23-18.15,0.05-27.23,0.05c-8.93,0-17.86,0-26.78,0
		c-9.08,0-18.15,0-27.23-0.01c-0.41,0-0.82-0.11-1.69-0.23c0.42-1.15,0.61-2.18,1.12-2.98c2.15-3.37,4.55-6.56,6.57-10.01
		c3.35-5.73,7.07-11.19,10.62-16.76c4.75-7.47,9.62-14.87,14.47-22.27c3.23-4.94,6.1-10.17,9.6-14.87
		c4.33-5.82,7.58-12.41,11.99-18.18c3.45-4.51,6.19-9.65,9.23-14.52c3.58-5.74,7.13-11.5,10.74-17.22c2.05-3.25,4.25-6.39,6.29-9.65
		c4.15-6.63,8.01-10.55,13.12-15.2c2.88-2.62,6.17-4.14,9.37-5.91c3.07-1.69,6.37-2.75,9.84-3.46c3.18-0.65,6.37-1.25,9.52-1.94
		c4.23-0.93,8.51-0.09,12.58-0.96c4.53-0.97,9-0.67,13.5-0.78c4.46-0.11,8.93-0.02,13.39-0.02c30.65,0,61.3,0,91.95,0
		C615.81,460.37,617.26,460.37,619.51,460.37z"/>
	<path class="st2" d="M354.47,270.03c1.91,0,3.24,0,4.56,0c39.14,0,78.28-0.04,117.42,0.05c4.34,0.01,8.71,0.61,13,1.11
		c4.4,0.51,8.91,1.29,13.18,2.72c5.27,1.77,10.53,3.72,14.96,7.47c2.04,1.73,4.03,3.53,5.94,5.41c5.76,5.64,10.01,12.58,14.27,19.49
		c4.25,6.87,8.09,14.05,12.67,20.64c3.46,4.97,6.37,10.32,9.8,15.25c3.46,4.98,6.39,10.3,9.8,15.26c2.85,4.14,5.3,8.56,8.18,12.63
		c2.82,3.99,5.11,8.33,7.88,12.29c5.07,7.26,9.63,14.88,14.55,22.23c4.04,6.03,7.73,12.34,12.13,18.1c0.14,0.18-0.01,0.61-0.05,1.34
		c-0.97,0-1.96,0-2.94,0c-38.1,0-76.2,0.01-114.3-0.04c-1.96,0-3.93-0.54-5.88-0.93c-1.95-0.39-4.11,0.95-5.92-0.9
		c-0.31-0.32-1.15-0.07-1.75-0.04c-4.04,0.19-7.87-1.22-11.68-2.18c-5.34-1.35-10.6-3.32-15.69-5.56
		c-4.51-1.98-8.63-4.88-12.47-8.17c-5.49-4.69-9.26-10.73-12.66-17.25c-2.73-5.23-6.25-9.99-9.38-14.98
		c-6.32-10.1-12.47-20.33-18.97-30.3c-5.3-8.14-10.26-16.52-15.56-24.65c-2.58-3.96-4.83-8.2-7.69-11.89
		c-4.44-5.74-7.49-12.49-12.03-18.15c-2.26-2.81-3.83-6.25-5.77-9.37c-1.64-2.63-3.36-5.2-5.02-7.82
		C354.85,271.44,354.79,270.97,354.47,270.03z"/>
	<g>
		<path d="M766.54,607.74h-35.18v-147.5h39.22c15.36,0,26.15,0.81,32.36,2.42c6.21,1.61,11.48,4.37,15.8,8.26
			c5.08,4.5,8.95,10.13,11.62,16.88c2.66,6.75,4,14.26,4,22.52c0,8.8-1.32,16.54-3.95,23.22c-2.63,6.68-6.52,12.17-11.66,16.47
			c-3.89,3.22-8.47,5.54-13.73,6.95c-5.27,1.41-13.7,2.12-25.3,2.12h-6.4h-6.77V607.74z M766.54,526.63h7.15
			c9.03,0,15.33-1.33,18.91-3.98c3.57-2.65,5.36-7.17,5.36-13.55c0-6.18-1.76-10.58-5.27-13.2c-3.51-2.62-9.72-3.93-18.62-3.93
			h-7.53V526.63z"/>
		<path d="M853.45,607.74v-147.5h84.37v32.34h-47.78v25.59h45.06v31.63h-45.06v24.89h47.78v33.05H853.45z"/>
		<path d="M962.66,607.74v-147.5h39.22c15.36,0,26.07,0.76,32.12,2.27c6.05,1.51,11.27,4.05,15.66,7.61
			c4.95,4.03,8.76,9.17,11.43,15.41c2.66,6.25,4,13.13,4,20.65c0,11.42-2.62,20.7-7.85,27.86c-5.24,7.15-12.87,11.91-22.9,14.26
			l37.53,59.44h-42.42l-31.6-57.73v57.73H962.66z M997.84,529.96h6.96c8.09,0,14-1.48,17.73-4.43c3.73-2.95,5.6-7.59,5.6-13.9
			c0-7.39-1.74-12.64-5.22-15.77c-3.48-3.12-9.33-4.69-17.54-4.69h-7.53V529.96z"/>
		<path d="M1106.01,607.74V495.1h-30.85v-34.86h99.24v34.86h-30.85v112.64H1106.01z"/>
		<path d="M1168.75,607.74l47.5-147.5h47.03l47.6,147.5h-37.34l-6.96-26.4h-53.33l-7.15,26.4H1168.75z M1221.33,552.63h37.34
			l-14.02-48.66c-0.44-1.48-1.03-3.86-1.79-7.15c-0.75-3.29-1.73-7.52-2.92-12.69c-0.82,3.63-1.61,7.09-2.4,10.38
			c-0.78,3.29-1.58,6.45-2.4,9.47L1221.33,552.63z"/>
		<path d="M1481.98,607.74h-35.09l-8.09-63.77c-0.56-4.5-1.08-9.5-1.55-15.01c-0.47-5.51-0.89-11.52-1.27-18.03
			c-0.88,6.25-2.6,14.04-5.17,23.37c-0.56,1.95-0.97,3.39-1.22,4.33l-18.72,69.11h-25.02l-18.72-69.11
			c-0.25-0.94-0.63-2.38-1.13-4.33c-2.63-9.34-4.36-17.09-5.17-23.27c-0.38,5.58-0.82,11.1-1.32,16.57
			c-0.5,5.48-1.1,10.93-1.79,16.37l-8.09,63.77h-34.9l21.26-147.5h37.16l20.79,76.07c0.13,0.54,0.38,1.41,0.75,2.62
			c1.94,6.78,3.17,12.59,3.67,17.43c0.25-2.62,0.72-5.52,1.41-8.71c0.69-3.19,1.63-7.03,2.82-11.54l20.98-75.86h37.25
			L1481.98,607.74z"/>
		<path d="M1503.15,607.74v-147.5h37.91v147.5H1503.15z"/>
		<path d="M1571.34,607.74v-147.5h36.21l52.02,75.86c1,1.55,2.65,4.65,4.94,9.32c2.29,4.67,4.81,10.23,7.57,16.67
			c-0.75-6.11-1.3-11.55-1.65-16.32c-0.35-4.77-0.52-9-0.52-12.69v-72.84h36.03v147.5h-36.03l-52.02-76.17
			c-1.07-1.54-2.74-4.65-5.03-9.32c-2.29-4.67-4.78-10.16-7.48-16.47c0.75,6.18,1.3,11.65,1.65,16.42c0.34,4.77,0.52,9,0.52,12.69
			v72.84H1571.34z"/>
		<path d="M1719.31,607.74l47.5-147.5h47.03l47.6,147.5h-37.34l-6.96-26.4h-53.33l-7.15,26.4H1719.31z M1771.89,552.63h37.34
			l-14.02-48.66c-0.44-1.48-1.03-3.86-1.79-7.15c-0.75-3.29-1.73-7.52-2.92-12.69c-0.82,3.63-1.61,7.09-2.4,10.38
			c-0.78,3.29-1.58,6.45-2.4,9.47L1771.89,552.63z"/>
	</g>
	<g>
		<path class="st2" d="M747.76,762.78v43.43h-14.74v-96.77h23.8c7.05,0,12.24,0.39,15.57,1.16c3.33,0.77,6.22,2.04,8.69,3.8
			c3.04,2.25,5.42,5.28,7.14,9.09c1.72,3.81,2.58,8.01,2.58,12.59c0,4.58-0.86,8.81-2.58,12.69c-1.72,3.88-4.1,6.92-7.14,9.12
			c-2.47,1.76-5.37,3.02-8.69,3.77c-3.33,0.75-8.52,1.12-15.57,1.12h-3.11H747.76z M748.75,749.89h4.03
			c8.73,0,14.54-0.95,17.45-2.84c2.91-1.89,4.36-5.24,4.36-10.05c0-5.16-1.55-8.79-4.66-10.91c-3.11-2.11-8.82-3.17-17.15-3.17
			h-4.03V749.89z"/>
		<path class="st2" d="M861.59,806.21l-10.97-24.92h-38.34l-11.24,24.92h-16.53l46.87-100.61l46.8,100.61H861.59z M818.09,768.2
			h26.97l-9.91-22.08c-0.57-1.41-1.17-3.03-1.78-4.86c-0.62-1.83-1.23-3.87-1.85-6.11c-0.53,2.12-1.09,4.09-1.69,5.92
			c-0.6,1.83-1.2,3.52-1.82,5.06L818.09,768.2z"/>
		<path class="st2" d="M911.16,722.79v83.42h-15.73v-83.42h-25.71v-13.35h67.03v13.35H911.16z"/>
		<path class="st2" d="M963.51,762.92v43.3h-14.74v-96.77h21.95c6.43,0,11.42,0.42,14.97,1.26s6.58,2.22,9.09,4.16
			c3,2.34,5.31,5.35,6.94,9.06c1.63,3.7,2.45,7.76,2.45,12.16c0,7.76-1.87,13.83-5.62,18.21c-3.75,4.39-9.28,7.02-16.59,7.9
			l33.31,44.02h-17.78l-32.19-43.3H963.51z M964.5,750.69h2.84c8.33,0,13.86-0.97,16.59-2.91c2.73-1.94,4.1-5.38,4.1-10.31
			c0-5.33-1.47-9.09-4.4-11.27c-2.93-2.18-8.36-3.27-16.29-3.27h-2.84V750.69z"/>
		<path class="st2" d="M1088.51,806.21l-10.97-24.92h-38.34l-11.24,24.92h-16.53l46.87-100.61l46.8,100.61H1088.51z M1045.02,768.2
			h26.97l-9.92-22.08c-0.57-1.41-1.17-3.03-1.78-4.86c-0.62-1.83-1.23-3.87-1.85-6.11c-0.53,2.12-1.09,4.09-1.69,5.92
			c-0.59,1.83-1.2,3.52-1.82,5.06L1045.02,768.2z"/>
		<path class="st2" d="M1155.07,806.21V705.61l61.47,59.16c1.67,1.67,3.37,3.46,5.09,5.35c1.72,1.9,3.53,4.03,5.42,6.41v-67.09
			h14.54v100.54l-62.73-60.22c-1.68-1.63-3.29-3.35-4.86-5.16c-1.56-1.81-3.05-3.7-4.46-5.69v67.29H1155.07z"/>
		<path class="st2" d="M1264.07,806.21v-96.77h15.73v96.77H1264.07z"/>
		<path class="st2" d="M1366.33,806.21l-10.97-24.92h-38.34l-11.24,24.92h-16.53l46.86-100.61l46.8,100.61H1366.33z M1322.84,768.2
			h26.97l-9.92-22.08c-0.57-1.41-1.17-3.03-1.78-4.86c-0.62-1.83-1.23-3.87-1.85-6.11c-0.53,2.12-1.09,4.09-1.69,5.92
			c-0.59,1.83-1.2,3.52-1.82,5.06L1322.84,768.2z"/>
		<path class="st2" d="M1443.27,756.64h38.34c0,0.66,0.02,1.59,0.07,2.78c0.13,3.13,0.2,5.24,0.2,6.35c0,13.62-3.9,24.19-11.7,31.73
			s-18.8,11.3-32.98,11.3c-7.93,0-15.01-1.17-21.22-3.5c-6.21-2.34-11.66-5.86-16.33-10.58c-4.58-4.67-8.1-10.16-10.54-16.46
			c-2.45-6.3-3.67-13.04-3.67-20.23c0-7.31,1.24-14.06,3.74-20.23c2.49-6.17,6.18-11.61,11.07-16.33
			c4.72-4.63,10.25-8.15,16.59-10.58c6.34-2.42,13.13-3.64,20.36-3.64c7.62,0,14.44,1.39,20.46,4.16
			c6.02,2.78,11.38,7.03,16.1,12.76l-11.5,8.66c-3.26-3.79-6.94-6.61-11.04-8.46c-4.1-1.85-8.68-2.78-13.75-2.78
			c-10.49,0-19.05,3.36-25.68,10.08c-6.63,6.72-9.95,15.46-9.95,26.21c0,10.93,3.31,19.8,9.95,26.6
			c6.63,6.81,15.24,10.21,25.81,10.21c8.99,0,16.06-2.09,21.22-6.28c5.16-4.19,7.73-9.89,7.73-17.12v-1.39h-23.27V756.64z"/>
		<path class="st2" d="M1562.32,806.21l-10.97-24.92h-38.34l-11.24,24.92h-16.53l46.86-100.61l46.8,100.61H1562.32z M1518.82,768.2
			h26.97l-9.92-22.08c-0.57-1.41-1.17-3.03-1.78-4.86c-0.62-1.83-1.23-3.87-1.85-6.11c-0.53,2.12-1.09,4.09-1.69,5.92
			c-0.59,1.83-1.2,3.52-1.82,5.06L1518.82,768.2z"/>
	</g>
</g>
</svg>
